<svg version="1.1" id="Layer_1" xmlns="http://www.w3.org/2000/svg" xmlns:xlink="http://www.w3.org/1999/xlink" x="0px" y="0px"
	 width="100%" viewBox="0 0 1024 1024" enable-background="new 0 0 1024 1024" xml:space="preserve">
<path fill="#E31A5F" opacity="1.000000" stroke="none" 
	d="
M569.000000,1025.000000 
	C379.333344,1025.000000 190.166672,1025.000000 1.000000,1025.000000 
	C1.000000,683.666687 1.000000,342.333344 1.000000,1.000000 
	C342.333344,1.000000 683.666687,1.000000 1025.000000,1.000000 
	C1025.000000,342.333344 1025.000000,683.666687 1025.000000,1025.000000 
	C873.166687,1025.000000 721.333313,1025.000000 569.000000,1025.000000 
M246.841843,558.500061 
	C246.841827,547.835083 247.580460,537.105042 246.649017,526.522034 
	C245.560562,514.155029 244.303680,501.540466 240.849976,489.695129 
	C232.003174,459.352966 210.874878,442.149109 181.671127,439.626953 
	C150.335480,436.920654 125.539612,451.588013 112.815376,480.307434 
	C107.280792,492.799469 104.074379,505.915405 103.890755,519.506775 
	C103.476677,550.157654 103.579163,580.815491 103.498245,611.470581 
	C103.496201,612.243774 103.805374,613.017822 103.947159,613.686523 
	C108.621315,613.686523 113.040024,613.686523 117.841835,613.686523 
	C117.841835,611.557861 117.841835,609.756042 117.841835,607.954224 
	C117.841858,580.458618 117.837708,552.962952 117.843834,525.467346 
	C117.846527,513.365601 119.798820,501.597260 124.020607,490.238464 
	C132.793243,466.635468 150.933609,453.635040 175.166092,453.544678 
	C198.949112,453.455994 216.822235,466.010773 225.926544,489.282013 
	C230.471359,500.898834 232.424301,513.016113 232.444046,525.446167 
	C232.487732,552.941772 232.457733,580.437439 232.457794,607.933105 
	C232.457809,609.868835 232.457809,611.804504 232.457809,613.701050 
	C237.588043,613.701050 242.010315,613.701050 246.841843,613.701050 
	C246.841843,595.425049 246.841843,577.462585 246.841843,558.500061 
M836.311523,613.129700 
	C855.069885,618.790527 873.813171,618.642212 892.228577,612.026367 
	C911.687927,605.035339 921.872803,589.531067 922.518311,567.192810 
	C923.083679,547.630005 913.790771,533.351074 894.660156,525.277466 
	C888.408875,522.639282 881.777344,520.846069 875.232056,518.972778 
	C863.254211,515.544739 850.887085,513.204407 839.278748,508.828247 
	C825.313660,503.563690 820.998108,492.149139 825.857117,477.954285 
	C828.612122,469.905792 834.190979,464.493774 841.745667,460.947449 
	C859.610535,452.561218 884.051941,457.457062 897.851990,472.252075 
	C898.946899,473.425964 899.539734,475.068054 900.339722,476.447388 
	C904.936951,472.796478 908.179016,470.221741 911.828552,467.323425 
	C909.224792,464.584747 906.932556,461.975342 904.435913,459.578949 
	C883.925964,439.892487 846.867126,437.804565 825.762939,455.103149 
	C801.648132,474.869659 806.809082,510.580261 835.595276,522.138550 
	C841.741638,524.606445 848.262939,526.168152 854.658325,527.982178 
	C866.007874,531.201477 877.652588,533.583862 888.699463,537.616089 
	C903.231079,542.920227 909.095337,552.291565 908.988892,566.907837 
	C908.875366,582.509338 901.886169,593.962646 888.080811,598.902649 
	C881.144531,601.384644 873.585388,602.827759 866.218811,603.275635 
	C842.738647,604.702942 823.612183,597.193909 812.525085,574.850891 
	C812.325745,574.449280 811.827209,574.196228 811.320923,573.741516 
	C807.808289,576.261353 804.325928,578.759521 800.914307,581.206909 
	C807.386047,595.778137 819.433594,606.736206 836.311523,613.129700 
M440.606201,467.161499 
	C447.914764,458.012878 455.223328,448.864227 463.111969,438.989471 
	C458.073792,438.989471 454.221130,439.300507 450.442047,438.906158 
	C446.268311,438.470642 443.840576,440.207611 441.364502,443.400604 
	C422.080811,468.267639 402.610870,492.990234 383.187408,517.748779 
	C382.323456,518.850037 381.352356,519.867371 380.222687,521.162903 
	C378.306976,518.732483 376.659546,516.654419 375.024628,514.566650 
	C356.238495,490.577179 337.471558,466.572632 318.627350,442.628876 
	C317.482208,441.173798 315.803345,439.295319 314.242950,439.164642 
	C309.038818,438.728851 303.775513,438.999603 297.705292,438.999603 
	C299.341431,441.174377 300.394226,442.610718 301.484741,444.017822 
	C323.718811,472.707245 346.020874,501.344574 368.083405,530.165283 
	C370.014709,532.688110 371.287018,536.398987 371.326141,539.576965 
	C371.601227,561.893433 371.472107,584.214783 371.472137,606.534607 
	C371.472137,608.487732 371.472107,610.440857 371.472107,612.534607 
	C376.666992,612.534607 381.218872,612.534607 386.211487,612.534607 
	C386.211487,610.258362 386.211456,608.276428 386.211456,606.294495 
	C386.211456,584.807495 386.345825,563.319092 386.108429,541.834717 
	C386.055176,537.011414 387.462433,533.381714 390.463531,529.684265 
	C407.150085,509.126282 423.613831,488.387512 440.606201,467.161499 
M580.682556,439.459534 
	C561.603943,440.191406 545.319031,447.019531 532.968323,461.898468 
	C518.845032,478.912933 513.135071,499.175720 512.622375,520.723450 
	C511.901581,551.016602 512.269348,581.335754 512.186584,611.643799 
	C512.184875,612.272949 512.366211,612.902588 512.496582,613.758179 
	C517.099121,613.758179 521.524597,613.758179 526.542236,613.758179 
	C526.542236,611.707458 526.542236,609.749695 526.542236,607.791931 
	C526.542297,580.643250 526.456116,553.494263 526.575562,526.346069 
	C526.644531,510.680786 529.472961,495.617401 536.772766,481.513153 
	C554.740906,446.796478 597.971863,448.277466 617.066223,464.334595 
	C620.076660,466.866150 622.801453,469.737488 625.825073,472.610229 
	C629.465637,469.769775 632.955994,467.046509 636.820251,464.031494 
	C635.051758,462.015503 633.721313,460.357635 632.246704,458.839813 
	C618.374451,444.560760 601.194275,438.886719 580.682556,439.459534 
M714.273804,614.026062 
	C715.552734,613.932678 716.831665,613.839233 718.271851,613.734009 
	C718.271851,567.067505 718.271851,520.679993 718.271851,475.414978 
	C713.551880,475.414978 709.119995,475.414978 704.513123,475.414978 
	C704.513123,520.734131 704.513123,567.242493 704.513123,614.026184 
	C707.698730,614.026184 710.519104,614.026184 714.273804,614.026062 
M703.126831,413.731354 
	C696.498047,417.555511 689.798035,421.264771 683.296631,425.294373 
	C681.884155,426.169830 680.342712,428.166412 680.293457,429.692841 
	C680.009094,438.511017 680.085083,447.344208 680.232971,456.169098 
	C680.253845,457.415314 681.005615,459.214874 681.984009,459.779419 
	C685.795044,461.978516 689.833557,463.783508 694.551147,466.112000 
	C694.551147,458.622559 695.133789,451.943939 694.399719,445.413330 
	C693.534241,437.713470 696.448914,433.623047 703.147644,429.859497 
	C709.319519,426.391907 713.554871,426.527130 719.700134,429.888611 
	C726.646667,433.688385 729.503357,437.981598 728.600647,445.837250 
	C727.856995,452.308380 728.448853,458.933014 728.448853,466.138306 
	C732.393677,464.178772 735.267822,462.474731 738.343750,461.298340 
	C741.637573,460.038605 742.764587,458.078094 742.639282,454.525543 
	C742.357605,446.540863 742.745361,438.531189 742.405762,430.551025 
	C742.326233,428.682098 740.883301,426.191650 739.303955,425.184509 
	C732.718079,420.984711 725.550476,417.658356 719.158447,413.204803 
	C713.626953,409.350830 708.850952,408.947723 703.126831,413.731354 
z"/>
<path fill="#FEF8F8" opacity="1.000000" stroke="none" 
	d="
M246.841843,559.000122 
	C246.841843,577.462585 246.841843,595.425049 246.841843,613.701050 
	C242.010315,613.701050 237.588043,613.701050 232.457809,613.701050 
	C232.457809,611.804504 232.457809,609.868835 232.457794,607.933105 
	C232.457733,580.437439 232.487732,552.941772 232.444046,525.446167 
	C232.424301,513.016113 230.471359,500.898834 225.926544,489.282013 
	C216.822235,466.010773 198.949112,453.455994 175.166092,453.544678 
	C150.933609,453.635040 132.793243,466.635468 124.020607,490.238464 
	C119.798820,501.597260 117.846527,513.365601 117.843834,525.467346 
	C117.837708,552.962952 117.841858,580.458618 117.841835,607.954224 
	C117.841835,609.756042 117.841835,611.557861 117.841835,613.686523 
	C113.040024,613.686523 108.621315,613.686523 103.947159,613.686523 
	C103.805374,613.017822 103.496201,612.243774 103.498245,611.470581 
	C103.579163,580.815491 103.476677,550.157654 103.890755,519.506775 
	C104.074379,505.915405 107.280792,492.799469 112.815376,480.307434 
	C125.539612,451.588013 150.335480,436.920654 181.671127,439.626953 
	C210.874878,442.149109 232.003174,459.352966 240.849976,489.695129 
	C244.303680,501.540466 245.560562,514.155029 246.649017,526.522034 
	C247.580460,537.105042 246.841827,547.835083 246.841843,559.000122 
z"/>
<path fill="#FEFBFB" opacity="1.000000" stroke="none" 
	d="
M835.929443,613.031372 
	C819.433594,606.736206 807.386047,595.778137 800.914307,581.206909 
	C804.325928,578.759521 807.808289,576.261353 811.320923,573.741516 
	C811.827209,574.196228 812.325745,574.449280 812.525085,574.850891 
	C823.612183,597.193909 842.738647,604.702942 866.218811,603.275635 
	C873.585388,602.827759 881.144531,601.384644 888.080811,598.902649 
	C901.886169,593.962646 908.875366,582.509338 908.988892,566.907837 
	C909.095337,552.291565 903.231079,542.920227 888.699463,537.616089 
	C877.652588,533.583862 866.007874,531.201477 854.658325,527.982178 
	C848.262939,526.168152 841.741638,524.606445 835.595276,522.138550 
	C806.809082,510.580261 801.648132,474.869659 825.762939,455.103149 
	C846.867126,437.804565 883.925964,439.892487 904.435913,459.578949 
	C906.932556,461.975342 909.224792,464.584747 911.828552,467.323425 
	C908.179016,470.221741 904.936951,472.796478 900.339722,476.447388 
	C899.539734,475.068054 898.946899,473.425964 897.851990,472.252075 
	C884.051941,457.457062 859.610535,452.561218 841.745667,460.947449 
	C834.190979,464.493774 828.612122,469.905792 825.857117,477.954285 
	C820.998108,492.149139 825.313660,503.563690 839.278748,508.828247 
	C850.887085,513.204407 863.254211,515.544739 875.232056,518.972778 
	C881.777344,520.846069 888.408875,522.639282 894.660156,525.277466 
	C913.790771,533.351074 923.083679,547.630005 922.518311,567.192810 
	C921.872803,589.531067 911.687927,605.035339 892.228577,612.026367 
	C873.813171,618.642212 855.069885,618.790527 835.929443,613.031372 
z"/>
<path fill="#FEFBFB" opacity="1.000000" stroke="none" 
	d="
M440.380005,467.436035 
	C423.613831,488.387512 407.150085,509.126282 390.463531,529.684265 
	C387.462433,533.381714 386.055176,537.011414 386.108429,541.834717 
	C386.345825,563.319092 386.211456,584.807495 386.211456,606.294495 
	C386.211456,608.276428 386.211487,610.258362 386.211487,612.534607 
	C381.218872,612.534607 376.666992,612.534607 371.472107,612.534607 
	C371.472107,610.440857 371.472137,608.487732 371.472137,606.534607 
	C371.472107,584.214783 371.601227,561.893433 371.326141,539.576965 
	C371.287018,536.398987 370.014709,532.688110 368.083405,530.165283 
	C346.020874,501.344574 323.718811,472.707245 301.484741,444.017822 
	C300.394226,442.610718 299.341431,441.174377 297.705292,438.999603 
	C303.775513,438.999603 309.038818,438.728851 314.242950,439.164642 
	C315.803345,439.295319 317.482208,441.173798 318.627350,442.628876 
	C337.471558,466.572632 356.238495,490.577179 375.024628,514.566650 
	C376.659546,516.654419 378.306976,518.732483 380.222687,521.162903 
	C381.352356,519.867371 382.323456,518.850037 383.187408,517.748779 
	C402.610870,492.990234 422.080811,468.267639 441.364502,443.400604 
	C443.840576,440.207611 446.268311,438.470642 450.442047,438.906158 
	C454.221130,439.300507 458.073792,438.989471 463.111969,438.989471 
	C455.223328,448.864227 447.914764,458.012878 440.380005,467.436035 
z"/>
<path fill="#FEF8F8" opacity="1.000000" stroke="none" 
	d="
M581.155701,439.458893 
	C601.194275,438.886719 618.374451,444.560760 632.246704,458.839813 
	C633.721313,460.357635 635.051758,462.015503 636.820251,464.031494 
	C632.955994,467.046509 629.465637,469.769775 625.825073,472.610229 
	C622.801453,469.737488 620.076660,466.866150 617.066223,464.334595 
	C597.971863,448.277466 554.740906,446.796478 536.772766,481.513153 
	C529.472961,495.617401 526.644531,510.680786 526.575562,526.346069 
	C526.456116,553.494263 526.542297,580.643250 526.542236,607.791931 
	C526.542236,609.749695 526.542236,611.707458 526.542236,613.758179 
	C521.524597,613.758179 517.099121,613.758179 512.496582,613.758179 
	C512.366211,612.902588 512.184875,612.272949 512.186584,611.643799 
	C512.269348,581.335754 511.901581,551.016602 512.622375,520.723450 
	C513.135071,499.175720 518.845032,478.912933 532.968323,461.898468 
	C545.319031,447.019531 561.603943,440.191406 581.155701,439.458893 
z"/>
<path fill="#FDF4F5" opacity="1.000000" stroke="none" 
	d="
M713.806641,614.026123 
	C710.519104,614.026184 707.698730,614.026184 704.513123,614.026184 
	C704.513123,567.242493 704.513123,520.734131 704.513123,475.414978 
	C709.119995,475.414978 713.551880,475.414978 718.271851,475.414978 
	C718.271851,520.679993 718.271851,567.067505 718.271851,613.734009 
	C716.831665,613.839233 715.552734,613.932678 713.806641,614.026123 
z"/>
<path fill="#FEF6F6" opacity="1.000000" stroke="none" 
	d="
M703.431519,413.525330 
	C708.850952,408.947723 713.626953,409.350830 719.158447,413.204803 
	C725.550476,417.658356 732.718079,420.984711 739.303955,425.184509 
	C740.883301,426.191650 742.326233,428.682098 742.405762,430.551025 
	C742.745361,438.531189 742.357605,446.540863 742.639282,454.525543 
	C742.764587,458.078094 741.637573,460.038605 738.343750,461.298340 
	C735.267822,462.474731 732.393677,464.178772 728.448853,466.138306 
	C728.448853,458.933014 727.856995,452.308380 728.600647,445.837250 
	C729.503357,437.981598 726.646667,433.688385 719.700134,429.888611 
	C713.554871,426.527130 709.319519,426.391907 703.147644,429.859497 
	C696.448914,433.623047 693.534241,437.713470 694.399719,445.413330 
	C695.133789,451.943939 694.551147,458.622559 694.551147,466.112000 
	C689.833557,463.783508 685.795044,461.978516 681.984009,459.779419 
	C681.005615,459.214874 680.253845,457.415314 680.232971,456.169098 
	C680.085083,447.344208 680.009094,438.511017 680.293457,429.692841 
	C680.342712,428.166412 681.884155,426.169830 683.296631,425.294373 
	C689.798035,421.264771 696.498047,417.555511 703.431519,413.525330 
z"/>
</svg>